<svg width="18" height="18" viewBox="0 0 18 18" fill="none" xmlns="http://www.w3.org/2000/svg"><path d="M0.329625 7.31467L8.20463 0.691338C8.41559 0.513955 8.70169 0.414307 9 0.414307C9.29831 0.414307 9.58441 0.513955 9.79537 0.691338L17.6704 7.31467C17.8814 7.49207 17.9999 7.7327 18 7.98363V17.0538C18 17.3048 17.8815 17.5454 17.6705 17.7229C17.4595 17.9003 17.1734 18 16.875 18H11.25V11.3767H6.75V18H1.125C0.826631 18 0.540484 17.9003 0.329505 17.7229C0.118527 17.5454 0 17.3048 0 17.0538V7.98363C6.37171e-05 7.7327 0.118632 7.49207 0.329625 7.31467V7.31467Z" fill="white"></path></svg>