<svg width="22" height="15" viewBox="0 0 22 15" fill="none" xmlns="http://www.w3.org/2000/svg">
<path d="M3.36093 14.8984C3.2267 15.0347 3.00813 15.0345 2.87824 14.894C-0.959413 10.7434 -0.959413 4.25656 2.87824 0.105978C3.00813 -0.0344996 3.2267 -0.0346569 3.36093 0.101555L4.2446 0.998303C4.37883 1.13451 4.37795 1.35525 4.24904 1.49664C1.16335 4.881 1.16335 10.119 4.24904 13.5034C4.37796 13.6448 4.37883 13.8655 4.2446 14.0017L3.36093 14.8984Z" fill="#CCCCCC"/>
<path d="M19.1192 0.105971C18.9893 -0.0344987 18.7707 -0.034657 18.6365 0.101553L17.7528 0.998302C17.6186 1.13451 17.6195 1.35524 17.7484 1.49664C20.8341 4.881 20.8341 10.119 17.7484 13.5034C17.6195 13.6448 17.6186 13.8655 17.7528 14.0017L18.6365 14.8984C18.7707 15.0347 18.9893 15.0345 19.1192 14.894C22.9633 10.7373 22.9572 4.25643 19.1192 0.105971Z" fill="#CCCCCC"/>
<path d="M16.377 2.88765C16.2496 2.74484 16.0312 2.74537 15.897 2.88158L15.0133 3.77833C14.8791 3.91454 14.8804 4.13484 15.0049 4.28027C16.5824 6.12297 16.5824 8.87703 15.0049 10.7197C14.8804 10.8652 14.8791 11.0855 15.0133 11.2217L15.897 12.1184C16.0312 12.2546 16.2496 12.2552 16.377 12.1123C18.7115 9.49515 18.7115 5.50485 16.377 2.88765Z" fill="#CCCCCC"/>
<path d="M5.62084 12.1123C5.74823 12.2552 5.96661 12.2546 6.10083 12.1184L6.98451 11.2217C7.11874 11.0855 7.11747 10.8652 6.99298 10.7197C5.41548 8.87703 5.41548 6.12297 6.99298 4.28027C7.11747 4.13485 7.11873 3.91454 6.98451 3.77833L6.10083 2.88158C5.96661 2.74537 5.74823 2.74484 5.62084 2.88765C3.28632 5.50485 3.28632 9.49515 5.62084 12.1123Z" fill="#CCCCCC"/>
<path d="M11.0815 10.4488C12.6862 10.4488 13.9871 9.12863 13.9871 7.50012C13.9871 5.87162 12.6862 4.55146 11.0815 4.55146C9.4767 4.55146 8.17579 5.87162 8.17579 7.50012C8.17579 9.12863 9.4767 10.4488 11.0815 10.4488Z" fill="#CCCCCC"/>
</svg>
