<svg width="20" height="19" viewBox="0 0 20 19" fill="none" xmlns="http://www.w3.org/2000/svg">
<path d="M13.7997 15.9309C12.583 15.9309 11.5953 14.9432 11.5953 13.7265C11.5953 12.5091 12.583 11.5227 13.7997 11.5227C15.0171 11.5227 16.0029 12.5091 16.0029 13.7265C16.0029 14.9432 15.0171 15.9309 13.7997 15.9309ZM13.7833 9.31173C11.3539 9.31173 9.38492 11.2814 9.38492 13.7101C9.38492 16.1382 11.3539 18.1072 13.7833 18.1072C16.2114 18.1072 18.1804 16.1382 18.1804 13.7101C18.1804 11.2814 16.2114 9.31173 13.7833 9.31173Z" fill="#CCCCCC"/>
<path d="M13.7832 11.981C12.8282 11.981 12.0536 12.7543 12.0536 13.7099C12.0536 14.6642 12.8282 15.4388 13.7831 15.4388C14.7382 15.4388 15.5121 14.6642 15.5121 13.7099C15.5121 12.7543 14.7382 11.981 13.7832 11.981Z" fill="#CCCCCC"/>
<path d="M4.81133 14.903H7.28604C6.73377 16.4941 5.22851 16.2292 5.22851 16.2292C4.01244 16.2069 3.44183 15.2125 3.44183 15.2125C2.42452 13.4436 3.44183 12.141 3.44183 12.141C3.90554 11.3231 5.12089 11.2346 5.12089 11.2346C6.60126 11.2346 7.10958 12.3398 7.10958 12.3398H9.40717C8.83199 10.5819 7.17908 9.31152 5.22851 9.31152C2.8004 9.31152 0.832031 11.2811 0.832031 13.7099C0.832031 16.138 2.8004 18.1077 5.22851 18.1077C7.65854 18.1077 9.62685 16.138 9.62685 13.7099C9.62685 13.5452 9.61705 13.3833 9.59931 13.2239H4.81133V14.903Z" fill="#CCCCCC"/>
<path d="M15.9054 5.71438C16.7967 5.71438 17.5171 4.99199 17.5171 4.10138C17.5171 3.21008 16.7967 2.48769 15.9054 2.48769C15.0147 2.48769 14.2924 3.21008 14.2924 4.10138C14.2924 4.99199 15.0147 5.71438 15.9054 5.71438ZM13.8531 4.10138C13.8531 2.96684 14.7727 2.04914 15.9054 2.04914C17.0387 2.04914 17.9582 2.96684 17.9582 4.10138C17.9582 5.23405 17.0387 6.15293 15.9054 6.15293C14.7727 6.15293 13.8531 5.23405 13.8531 4.10138ZM10.9963 4.10138C11.2494 4.06815 11.6725 3.77886 11.8219 3.59278C11.7696 3.82312 11.766 4.48835 11.8268 4.71746C11.6566 4.45575 11.2537 4.1333 10.9963 4.10131V4.10138ZM9.52088 1.9287C9.84333 1.9287 10.097 2.24694 10.097 2.60993C10.097 2.97174 9.84333 3.29115 9.52088 3.29115H8.41213V1.9287H9.52088ZM9.51654 4.95517C9.83967 4.95517 10.0933 5.27335 10.0933 5.63702C10.0933 5.99939 9.83967 6.31756 9.51654 6.31756H8.40848V4.95511L9.51654 4.95517ZM15.9042 8.23585C18.1627 8.23523 20.0006 6.3581 20 4.10014C20 1.79301 18.1627 0.0012425 15.9041 2.77391e-06C13.6474 -0.00247667 12.4951 1.65788 12.2106 2.32863C12.2131 1.3231 11.2217 0.135132 10.0614 0.133273H6.32425V8.19469L9.80831 8.19593C11.2137 8.19593 12.2131 6.97914 12.2144 5.93548C12.5362 6.59216 13.6474 8.23709 15.9041 8.23585H15.9042ZM5.86798 8.19779H3.67745V5.06997H2.25549V8.19779H0.00731436L0 0.134513H2.25555V3.13452H3.67751V0.134513H5.86791V8.19779H5.86798Z" fill="#CCCCCC"/>
</svg>
